<svg viewBox="0 0 294 30" fill="none" xmlns="http://www.w3.org/2000/svg" width="294" height="30">
  <path fill-rule="evenodd" clip-rule="evenodd"
        d="M20.697 28.737H0v-.2l2.106-2.144V3.233L0 1.13v-.2h19.743v5.046h-.2l-5.481-3.496h-7.15v10.845h7.072l3.574-2.663h.2v6.914h-.2l-3.574-2.663H6.912v12.236h7.667l5.92-4.251h.198v5.84Zm23.003 0h-1.868L31.506 3.273 29.915 1.13v-.2h8.82v.2l-1.987 2.144 7.668 19.307 7.229-18.592-3.178-2.86V.93h7.11v.199L53.67 3.988 43.7 28.737Zm41.515 0H64.518v-.2l2.105-2.144V3.233L64.517 1.13v-.2H84.26v5.046h-.198l-5.483-3.496H71.43v10.845h7.07l3.576-2.663h.199v6.914h-.199L78.5 14.912h-7.07v12.236h7.666l5.92-4.251h.199v5.84Zm21.493 0h-8.977v-.2l2.104-2.144V3.273L97.731 1.13v-.2h14.777c2.025.319 3.694 1.153 4.965 2.464 1.272 1.31 1.906 2.86 1.906 4.688 0 3.336-2.303 5.838-6.395 6.592l7.27 11.8 2.662 2.065v.199h-6.992l-7.547-13.308h-3.734v10.964l2.065 2.145v.199Zm-2.065-26.615v11.837h3.336c4.25 0 6.673-2.027 6.673-5.402 0-4.013-3.256-6.435-8.858-6.435h-1.151Zm69.921 26.615h-12.116v-.2l2.106-2.144V3.233l-2.106-2.104v-.2h14.022c3.934.516 6.476 3.299 6.476 6.754 0 3.02-2.066 5.204-5.522 5.878 4.608.478 7.43 3.298 7.43 7.43 0 4.885-3.815 7.746-10.29 7.746ZM169.36 2.122v11.123h3.774c3.298 0 5.283-1.947 5.283-5.005 0-3.775-3.019-6.118-8.064-6.118h-.993Zm0 12.593v12.512h3.378c4.567 0 7.149-2.304 7.149-6.316 0-4.131-2.661-6.196-7.945-6.196h-2.582Zm27.492.277c0-9.057 6.117-14.659 13.547-14.659 7.626 0 12.949 5.76 12.949 14.34 0 9.059-6.078 14.66-13.546 14.66-7.588 0-12.95-5.8-12.95-14.341Zm21.373.556c0-4.25-.756-7.548-2.305-9.931-1.508-2.423-3.615-3.615-6.276-3.615-4.887 0-7.667 4.211-7.667 12.116 0 4.251.756 7.547 2.264 9.97 1.55 2.385 3.655 3.577 6.318 3.577 4.885 0 7.666-4.211 7.666-12.116Zm26.658 13.189h-9.335v-.2l2.105-2.144V3.233l-2.105-2.104v-.2h13.425c7.271 1.272 11.959 6.953 11.959 14.301 0 8.779-5.562 13.507-16.049 13.507Zm-2.424-1.51h2.461c7.112 0 11.004-3.972 11.004-11.122 0-8.185-5.124-13.466-13.465-13.784v24.906Zm43.859 1.31v.2h-8.977v-.2l2.103-2.144V15.747l-8.222-12.474-1.748-2.144v-.2h9.414v.2l-1.945 2.144 6.435 10.288 6.117-9.77-2.542-2.662v-.2h6.832v.2l-1.947 2.423-7.626 11.638v11.203l2.106 2.145Zm-148.477.2L149.197.93h-2.531l-11.358 27.807h2.533Z"
        fill="#000"></path>
</svg>
